PathFileType	4	(X/Y/Z)	C:/Users/beibeiliu/ov580/test_trc/User3\out2_training_dense_left.trc
DataRate	CameraRate	NumFrames	NumMarkers	Units	OrigDataRate	OrigDataStartFrame	OrigNumFrames
120	120	13	19	mm	120	313	500
Frame#	Time	ThumbCMC			ThumbMCP			ThumbIP			ThumbTip			IndexMCP			IndexPIP			IndexTip			MiddleMCP			MiddlePIP			MiddleTip			RingMCP			RingPIP			RingTip			PinkyMCP			PinkyPIP			PinkyTip			BackHand1			BackHand2			BackHand3	
		X0	Y0	Z0	X1	Y1	Z1	X2	Y2	Z2	X3	Y3	Z3	X4	Y4	Z4	X5	Y5	Z5	X6	Y6	Z6	X7	Y7	Z7	X8	Y8	Z8	X9	Y9	Z9	X10	Y10	Z10	X11	Y11	Z11	X12	Y12	Z12	X13	Y13	Z13	X14	Y14	Z14	X15	Y15	Z15	X16	Y16	Z16	X17	Y17	Z17	X18	Y18	Z18	
312	2.6	-84.8501	25.0227	27.1393	-64.783	19.0764	8.50453	-42.5858	17.5818	-7.76409	-26.0268	12.3614	-27.2452	-105.92	41.347	-43.653	-97.473	47.618	-70.2851	-92.0669	51.1165	-94.8686	-135.939	28.2314	-49.1682	-130.541	32.593	-81.8859	-127.49	26.333	-114.334	-147.993	7.36201	-46.666	-145.128	0.622219	-72.3644	-135.26	-17.8431	-94.695	-156.325	-17.6067	-35.3198	-149.643	-34.7103	-52.045	-140.792	-54.3736	-62.3189	-152.012	16.2414	4.60021	-152.811	14.4246	36.9428	-123.3	32.8841	21.5457	
313	2.60833	-86.2185	22.445	33.4682	-67.6703	16.7943	12.876	-44.5885	14.9663	-13.3768	-31.5728	8.18017	-30.8694	-109.317	44.8918	-35.5326	-104.539	54.0496	-62.9155	-93.6542	56.8775	-89.2546	-135.684	36.0327	-44.5479	-139.405	35.2083	-76.8266	-127.656	25.848	-109.276	-147.772	10.9399	-45.4529	-144.833	-3.31133	-70.5888	-124.9	-24.2471	-84.2576	-153.272	-14.9418	-30.4199	-141.883	-32.9559	-49.7547	-121.266	-50.7488	-50.4185	-152.111	19.7251	7.34708	-155.145	14.5439	40.6446	-124.762	34.1212	24.5304	
314	2.61667	-90.1545	20.9384	35.0623	-69.137	15.123	9.68498	-48.8969	12.7092	-10.9187	-43.8516	2.20185	-33.9311	-113.448	49.1002	-30.6528	-106.835	60.6057	-59.4748	-92.5904	60.0146	-85.815	-140.234	37.89	-39.1506	-138.543	42.3922	-72.1221	-123.029	26.2518	-101.176	-149.328	11.7874	-41.2062	-136.607	3.04901	-67.3314	-116.339	-21.8973	-71.4661	-148.42	-12.0343	-33.7782	-135.414	-30.2516	-44.9243	-111.65	-47.5562	-38.0106	-155.501	16.5749	8.50322	-156.793	9.97942	42.3156	-130.001	31.7692	26.5346	
315	2.625	-90.7721	20.7611	34.8669	-70.6761	13.8086	9.47816	-54.7807	9.21427	-13.9866	-50.6168	-1.14106	-42.2934	-114.623	53.9906	-34.304	-105.276	63.9278	-60.551	-90.5079	57.4789	-84.3902	-140.832	42.2949	-42.2549	-136.309	43.5588	-74.6749	-119.209	20.4109	-96.3244	-145.156	12.9148	-42.9073	-130.806	-2.78326	-66.6495	-110.576	-25.7734	-60.3052	-144.737	-13.4524	-33.5191	-123.66	-30.4596	-41.1229	-102.832	-43.143	-23.8456	-153.473	17.6823	11.5026	-158.275	8.29338	40.3908	-131.94	32.0348	29.2098	
316	2.63333	-93.7234	20.7816	31.6503	-73.795	15.3712	4.92372	-53.6798	11.9882	-20.562	-57.0924	-3.47256	-38.8567	-118.499	49.517	-31.4322	-112.671	58.0158	-62.3496	-89.318	49.183	-86.4935	-142.182	38.0728	-41.8345	-139.221	35.163	-74.6969	-113.157	10.7244	-92.2482	-145.349	6.86651	-46.9199	-129.136	-7.42908	-66.6818	-106.744	-28.1538	-54.6803	-142.329	-20.9366	-36.7806	-119.968	-34.7987	-38.9989	-99.4612	-39.998	-22.3736	-155.454	13.0486	11.3084	-157.377	7.09092	41.0107	-132.465	33.7498	27.5422	
317	2.64167	-96.1594	27.5213	29.3967	-75.5939	20.8528	5.9157	-57.564	17.6998	-21.0951	-58.6443	0.168244	-44.2202	-129.673	45.7177	-39.8546	-121.082	51.8844	-67.824	-97.1249	37.0519	-88.1995	-150.113	26.9547	-43.884	-137.956	29.6133	-78.4289	-113.408	5.48409	-88.1154	-146.531	-0.611296	-47.8812	-127.267	-9.27746	-67.389	-100.814	-25.8029	-51.9189	-141.525	-24.7195	-34.7723	-114.504	-35.492	-40.6058	-91.5574	-37.8899	-20.3805	-160.598	5.02023	9.68791	-157.78	-0.304556	38.54	-138.131	28.6161	24.3073	
318	2.65	-108.447	35.3357	25.2859	-85.9644	33.6781	2.51303	-67.798	31.5885	-25.5839	-66.159	12.1354	-42.3954	-142.897	39.0894	-46.3631	-131.603	46.4559	-74.2901	-106.185	33.8231	-88.117	-156.264	19.439	-53.1872	-146.473	12.9292	-81.859	-109.289	1.38067	-84.3458	-148.133	-6.86358	-45.7256	-126.766	-16.2364	-69.7918	-95.9172	-21.2778	-51.5275	-137.604	-32.9201	-34.6084	-110.656	-33.7331	-43.563	-89.9632	-32.3661	-26.0409	-161.361	-5.87754	8.02582	-158.819	-8.518	37.1278	-150.399	24.8493	22.5848	
319	2.65833	-126.993	40.4397	18.0088	-103.591	47.2681	-1.96207	-84.4335	48.3107	-29.4823	-77.2895	26.7051	-42.8541	-156.603	29.5802	-52.2664	-146.495	31.2124	-79.8546	-113.958	27.7442	-88.3822	-163.228	-1.90255	-57.6487	-146.521	0.653064	-87.1981	-110.374	0.453584	-84.0412	-147.993	-19.5348	-50.178	-127.188	-22.8159	-70.2256	-95.6603	-16.6513	-56.2427	-130.861	-35.0421	-34.9576	-103.967	-36.8862	-44.3104	-82.1995	-21.1625	-28.8792	-160.99	-17.35	-0.0478494	-160.926	-15.7398	33.6598	-163.028	13.9238	16.1702	
320	2.66667	-148.511	35.6133	17.9464	-126.774	50.2157	-9.27549	-108.086	55.1506	-32.665	-92.0247	36.5315	-47.3477	-164.661	12.882	-53.406	-155.456	23.5346	-84.7493	-122.26	34.3625	-89.2758	-161.276	-13.9947	-56.7732	-146.752	-7.90154	-89.285	-110.665	1.04079	-82.9381	-143.246	-28.3006	-53.0235	-119.2	-25.5344	-72.0775	-93.165	-5.98134	-56.3329	-121.963	-38.6036	-33.8488	-99.3343	-26.7118	-47.1615	-80.42	-5.08727	-31.6648	-159.925	-30.4291	-1.01427	-162.56	-26.8122	30.5083	-171.571	3.72726	14.1228	
321	2.675	-167.622	28.219	11.3606	-152.739	53.1726	-8.3073	-135.862	61.5048	-31.576	-111.249	50.5271	-46.5869	-168.662	2.78962	-61.0325	-163.124	16.2853	-85.9701	-133.706	36.5782	-90.9106	-159.507	-19.1125	-62.8918	-144.972	-12.7097	-88.1263	-114.683	13.9762	-83.8791	-138.281	-26.9132	-50.6383	-116.184	-15.3322	-72.9525	-97.8021	9.18588	-60.272	-116.119	-28.9027	-31.9232	-92.8437	-12.0879	-43.9059	-86.4857	15.2804	-32.7135	-154.339	-33.8341	-1.18231	-161.736	-32.9208	29.0429	-178.724	-10.465	9.06256	
322	2.68333	-186.087	17.8523	16.112	-177.619	43.1964	-10.8233	-165.424	60.049	-32.0208	-136.712	54.1362	-43.5584	-171.993	-5.01041	-62.7428	-167.296	8.47796	-86.9333	-150.874	35.6012	-89.9204	-155.843	-19.6043	-62.9179	-140.214	-8.18603	-87.7032	-125.489	31.529	-81.8857	-129.567	-21.6785	-49.8512	-115.368	-3.91491	-70.4897	-108.859	25.2525	-60.6805	-111.577	-14.0173	-33.4741	-96.1492	9.57475	-40.128	-102.301	32.6456	-31.3506	-150.542	-32.6612	-0.96926	-154.222	-36.1436	27.2569	-177.409	-21.4346	3.67351	
323	2.69167	-200.268	5.0262	13.7238	-200.347	30.3409	-5.91422	-190.052	48.4726	-26.3237	-165.719	55.836	-38.0315	-178.054	-9.60972	-59.9469	-181.455	6.54978	-85.3361	-170.506	40.7307	-87.6593	-154.304	-17.4151	-61.4498	-146.811	1.89094	-87.6115	-141.566	42.0507	-77.8827	-133.301	-12.8821	-52.6161	-120.025	8.4705	-68.0909	-122.221	41.0699	-56.5477	-116.49	-1.39972	-30.503	-109.687	25.0095	-39.4091	-120.947	49.8596	-26.0354	-143.838	-35.3494	1.22318	-150.266	-37.2725	25.3861	-182.427	-29.1781	4.35109	
324	2.7	-206.519	-4.55	16.1716	-211.219	19.5725	-2.75503	-207.636	42.1189	-26.2001	-186.227	53.2326	-34.7116	-182.741	-12.9345	-56.788	-184.969	5.38202	-84.0665	-184.418	37.3242	-85.1934	-157.27	-17.7886	-58.1279	-150.147	1.57628	-84.9123	-151.18	39.2652	-77.5786	-139.575	-8.97915	-51.1133	-131.391	12.7247	-68.1842	-135.802	46.0757	-55.1632	-123.765	1.98111	-28.1211	-119.139	31.9199	-35.9908	-136.564	52.1985	-26.4567	-144.529	-35.0262	-1.05095	-149.358	-39.6362	27.7774	-180.259	-36.5491	7.83442	
